<svg xmlns="http://www.w3.org/2000/svg" width="1104" height="296" style="background:0 0;background-color:transparent" viewBox="0 0 1104 296"><defs><clipPath id="mx-clip-34-61-262-28-0"><rect width="262" height="28" x="34" y="61"/></clipPath><clipPath id="mx-clip-34-87-262-28-0"><rect width="262" height="28" x="34" y="87"/></clipPath><clipPath id="mx-clip-34-113-262-28-0"><rect width="262" height="28" x="34" y="113"/></clipPath><clipPath id="mx-clip-314-62-192-28-0"><rect width="192" height="28" x="314" y="62"/></clipPath><clipPath id="mx-clip-314-88-192-28-0"><rect width="192" height="28" x="314" y="88"/></clipPath><clipPath id="mx-clip-34-139-262-28-0"><rect width="262" height="28" x="34" y="139"/></clipPath><clipPath id="mx-clip-524-62-262-28-0"><rect width="262" height="28" x="524" y="62"/></clipPath><clipPath id="mx-clip-524-88-262-28-0"><rect width="262" height="28" x="524" y="88"/></clipPath><clipPath id="mx-clip-524-114-262-28-0"><rect width="262" height="28" x="524" y="114"/></clipPath><clipPath id="mx-clip-524-139-262-28-0"><rect width="262" height="28" x="524" y="139"/></clipPath><clipPath id="mx-clip-524-165-262-28-0"><rect width="262" height="28" x="524" y="165"/></clipPath><clipPath id="mx-clip-34-165-262-28-0"><rect width="262" height="28" x="34" y="165"/></clipPath><clipPath id="mx-clip-34-191-262-28-0"><rect width="262" height="28" x="34" y="191"/></clipPath><clipPath id="mx-clip-34-217-262-28-0"><rect width="262" height="28" x="34" y="217"/></clipPath><clipPath id="mx-clip-34-243-262-28-0"><rect width="262" height="28" x="34" y="243"/></clipPath><clipPath id="mx-clip-524-190-262-28-0"><rect width="262" height="28" x="524" y="190"/></clipPath><clipPath id="mx-clip-804-62-262-28-0"><rect width="262" height="28" x="804" y="62"/></clipPath><clipPath id="mx-clip-804-88-262-28-0"><rect width="262" height="28" x="804" y="88"/></clipPath><clipPath id="mx-clip-804-114-262-28-0"><rect width="262" height="28" x="804" y="114"/></clipPath><clipPath id="mx-clip-804-139-262-28-0"><rect width="262" height="28" x="804" y="139"/></clipPath><clipPath id="mx-clip-804-165-262-28-0"><rect width="262" height="28" x="804" y="165"/></clipPath><clipPath id="mx-clip-804-190-262-28-0"><rect width="262" height="28" x="804" y="190"/></clipPath></defs><g><g data-cell-id="0"><g data-cell-id="1"><g data-cell-id="2"><g transform="translate(0.5,0.5)"><rect width="1083" height="275" x="10" y="10" fill="#fff" stroke="#000" pointer-events="all" style="fill:light-dark(#fff,var(--ge-dark-color, #121212));stroke:light-dark(#000,#fff)"/></g></g><g data-cell-id="3"><g transform="translate(0.5,0.5)"><path fill="#ffce9f" stroke="#000" stroke-miterlimit="10" d="M 30 58 L 30 32 L 300 32 L 300 58" pointer-events="all" style="fill:light-dark(#ffce9f,#5a3008);stroke:light-dark(#000,#fff)"/><path fill="none" stroke="#000" stroke-miterlimit="10" d="M 30 58 L 30 136 L 300 136 L 300 58" pointer-events="none" style="stroke:light-dark(#000,#fff)"/><path fill="none" stroke="#000" stroke-miterlimit="10" d="M 30 58 L 300 58" pointer-events="none" style="stroke:light-dark(#000,#fff)"/></g><g><g font-family="Helvetica" font-size="15" style="fill:light-dark(#000,#fff)" text-anchor="middle"><text x="165" y="51.5">Users</text></g></g><g data-cell-id="4"><g transform="translate(0.5,0.5)"><rect width="270" height="26" x="30" y="58" fill="none" pointer-events="all"/></g><g><g clip-path="url(#mx-clip-34-61-262-28-0)" font-family="Helvetica" font-size="15" style="fill:light-dark(#000,#fff)"><text x="36" y="77">userID:                        INT</text></g></g></g><g data-cell-id="5"><g transform="translate(0.5,0.5)"><rect width="270" height="26" x="30" y="84" fill="none" stroke="#000" pointer-events="all" style="stroke:light-dark(#000,#ededed)"/></g><g><g clip-path="url(#mx-clip-34-87-262-28-0)" font-family="Helvetica" font-size="15" style="fill:light-dark(#000,#fff)"><text x="36" y="103">firstName:                   VARCHAR(15)</text></g></g></g><g data-cell-id="6"><g transform="translate(0.5,0.5)"><rect width="270" height="26" x="30" y="110" fill="none" stroke="#000" pointer-events="all" style="stroke:light-dark(#000,#ededed)"/></g><g><g clip-path="url(#mx-clip-34-113-262-28-0)" font-family="Helvetica" font-size="15" style="fill:light-dark(#000,#fff)"><text x="36" y="129">lastName:                   VARCHAR(15)</text></g></g></g></g><g data-cell-id="7"><g transform="translate(0.5,0.5)"><path fill="#ffce9f" stroke="#000" stroke-miterlimit="10" d="M 310 59.45 L 310 33.45 L 510 33.45 L 510 59.45" pointer-events="all" style="fill:light-dark(#ffce9f,#5a3008);stroke:light-dark(#000,#fff)"/><path fill="none" stroke="#000" stroke-miterlimit="10" d="M 310 59.45 L 310 111.45 L 510 111.45 L 510 59.45" pointer-events="none" style="stroke:light-dark(#000,#fff)"/><path fill="none" stroke="#000" stroke-miterlimit="10" d="M 310 59.45 L 510 59.45" pointer-events="none" style="stroke:light-dark(#000,#fff)"/></g><g><g font-family="Helvetica" font-size="15" style="fill:light-dark(#000,#fff)" text-anchor="middle"><text x="410" y="52.95">Followers</text></g></g><g data-cell-id="8"><g transform="translate(0.5,0.5)"><rect width="200" height="26" x="310" y="59.45" fill="none" pointer-events="all"/></g><g><g clip-path="url(#mx-clip-314-62-192-28-0)" font-family="Helvetica" font-size="15" style="fill:light-dark(#000,#fff)"><text x="316" y="78.45">toUserID:          INT</text></g></g></g><g data-cell-id="9"><g transform="translate(0.5,0.5)"><rect width="200" height="26" x="310" y="85.45" fill="none" stroke="#000" pointer-events="all" style="stroke:light-dark(#000,#ededed)"/></g><g><g clip-path="url(#mx-clip-314-88-192-28-0)" font-family="Helvetica" font-size="15" style="fill:light-dark(#000,#fff)"><text x="316" y="104.45">fromUserID:      INT</text></g></g></g></g><g data-cell-id="10"><g transform="translate(0.5,0.5)"><rect width="270" height="26" x="30" y="136" fill="none" stroke="#000" pointer-events="all" style="stroke:light-dark(#000,#ededed)"/></g><g><g clip-path="url(#mx-clip-34-139-262-28-0)" font-family="Helvetica" font-size="15" style="fill:light-dark(#000,#fff)"><text x="36" y="155">Email:                         VARCHAR(15)</text></g></g></g><g data-cell-id="11"><g transform="translate(0.5,0.5)"><path fill="#ffce9f" stroke="#000" stroke-miterlimit="10" d="M 520 59.45 L 520 33.45 L 790 33.45 L 790 59.45" pointer-events="all" style="fill:light-dark(#ffce9f,#5a3008);stroke:light-dark(#000,#fff)"/><path fill="none" stroke="#000" stroke-miterlimit="10" d="M 520 59.45 L 520 136.12 L 790 136.12 L 790 59.45" pointer-events="none" style="stroke:light-dark(#000,#fff)"/><path fill="none" stroke="#000" stroke-miterlimit="10" d="M 520 59.45 L 790 59.45" pointer-events="none" style="stroke:light-dark(#000,#fff)"/></g><g><g font-family="Helvetica" font-size="15" style="fill:light-dark(#000,#fff)" text-anchor="middle"><text x="655" y="52.95">Photo</text></g></g><g data-cell-id="12"><g transform="translate(0.5,0.5)"><rect width="270" height="25.56" x="520" y="59.45" fill="none" pointer-events="all"/></g><g><g clip-path="url(#mx-clip-524-62-262-28-0)" font-family="Helvetica" font-size="15" style="fill:light-dark(#000,#fff)"><text x="526" y="78.45">photoID:                       INT</text></g></g></g><g data-cell-id="13"><g transform="translate(0.5,0.5)"><rect width="270" height="25.56" x="520" y="85.01" fill="none" stroke="#000" pointer-events="all" style="stroke:light-dark(#000,#ededed)"/></g><g><g clip-path="url(#mx-clip-524-88-262-28-0)" font-family="Helvetica" font-size="15" style="fill:light-dark(#000,#fff)"><text x="526" y="104.01">userID:                         INT</text></g></g></g><g data-cell-id="14"><g transform="translate(0.5,0.5)"><rect width="270" height="25.56" x="520" y="110.56" fill="none" stroke="#000" pointer-events="all" style="stroke:light-dark(#000,#ededed)"/></g><g><g clip-path="url(#mx-clip-524-114-262-28-0)" font-family="Helvetica" font-size="15" style="fill:light-dark(#000,#fff)"><text x="526" y="129.56">location:                       VARCHAR(15)</text></g></g></g></g><g data-cell-id="15"><g transform="translate(0.5,0.5)"><rect width="270" height="25.56" x="520" y="136.22" fill="none" stroke="#000" pointer-events="all" style="stroke:light-dark(#000,#ededed)"/></g><g><g clip-path="url(#mx-clip-524-139-262-28-0)" font-family="Helvetica" font-size="15" style="fill:light-dark(#000,#fff)"><text x="526" y="155.22">caption:                        VARCHAR(100) </text></g></g></g><g data-cell-id="16"><g transform="translate(0.5,0.5)"><rect width="270" height="25.56" x="520" y="161.77" fill="none" stroke="#000" pointer-events="all" style="stroke:light-dark(#000,#ededed)"/></g><g><g clip-path="url(#mx-clip-524-165-262-28-0)" font-family="Helvetica" font-size="15" style="fill:light-dark(#000,#fff)"><text x="526" y="180.77">creationTime:               VARCHAR(15)</text></g></g></g><g data-cell-id="17"><g transform="translate(0.5,0.5)"><rect width="270" height="26" x="30" y="162" fill="none" stroke="#000" pointer-events="all" style="stroke:light-dark(#000,#ededed)"/></g><g><g clip-path="url(#mx-clip-34-165-262-28-0)" font-family="Helvetica" font-size="15" style="fill:light-dark(#000,#fff)"><text x="36" y="181">Bio:                             VARCHAR(150)</text></g></g></g><g data-cell-id="18"><g transform="translate(0.5,0.5)"><rect width="270" height="26" x="30" y="188" fill="none" stroke="#000" pointer-events="all" style="stroke:light-dark(#000,#ededed)"/></g><g><g clip-path="url(#mx-clip-34-191-262-28-0)" font-family="Helvetica" font-size="15" style="fill:light-dark(#000,#fff)"><text x="36" y="207">Location:                     VARCHAR(15)</text></g></g></g><g data-cell-id="19"><g transform="translate(0.5,0.5)"><rect width="270" height="26" x="30" y="214" fill="none" stroke="#000" pointer-events="all" style="stroke:light-dark(#000,#ededed)"/></g><g><g clip-path="url(#mx-clip-34-217-262-28-0)" font-family="Helvetica" font-size="15" style="fill:light-dark(#000,#fff)"><text x="36" y="233">AccountCreationDate:  DATE</text></g></g></g><g data-cell-id="20"><g transform="translate(0.5,0.5)"><rect width="270" height="26" x="30" y="240" fill="none" stroke="#000" pointer-events="all" style="stroke:light-dark(#000,#ededed)"/></g><g><g clip-path="url(#mx-clip-34-243-262-28-0)" font-family="Helvetica" font-size="15" style="fill:light-dark(#000,#fff)"><text x="36" y="259">LastLogin:                     DATE</text></g></g></g><g data-cell-id="21"><g transform="translate(0.5,0.5)"><rect width="270" height="25.56" x="520" y="187.33" fill="none" stroke="#000" pointer-events="all" style="stroke:light-dark(#000,#ededed)"/></g><g><g clip-path="url(#mx-clip-524-190-262-28-0)" font-family="Helvetica" font-size="15" style="fill:light-dark(#000,#fff)"><text x="526" y="206.33">photoPath:                   VARCHAR(256)</text></g></g></g><g data-cell-id="22"><g transform="translate(0.5,0.5)"><path fill="#ffce9f" stroke="#000" stroke-miterlimit="10" d="M 800 59.45 L 800 33.45 L 1070 33.45 L 1070 59.45" pointer-events="all" style="fill:light-dark(#ffce9f,#5a3008);stroke:light-dark(#000,#fff)"/><path fill="none" stroke="#000" stroke-miterlimit="10" d="M 800 59.45 L 800 136.12 L 1070 136.12 L 1070 59.45" pointer-events="none" style="stroke:light-dark(#000,#fff)"/><path fill="none" stroke="#000" stroke-miterlimit="10" d="M 800 59.45 L 1070 59.45" pointer-events="none" style="stroke:light-dark(#000,#fff)"/></g><g><g font-family="Helvetica" font-size="15" style="fill:light-dark(#000,#fff)" text-anchor="middle"><text x="935" y="52.95">Video</text></g></g><g data-cell-id="23"><g transform="translate(0.5,0.5)"><rect width="270" height="25.56" x="800" y="59.45" fill="none" pointer-events="all"/></g><g><g clip-path="url(#mx-clip-804-62-262-28-0)" font-family="Helvetica" font-size="15" style="fill:light-dark(#000,#fff)"><text x="806" y="78.45">videoID:                        INT</text></g></g></g><g data-cell-id="24"><g transform="translate(0.5,0.5)"><rect width="270" height="25.56" x="800" y="85.01" fill="none" stroke="#000" pointer-events="all" style="stroke:light-dark(#000,#ededed)"/></g><g><g clip-path="url(#mx-clip-804-88-262-28-0)" font-family="Helvetica" font-size="15" style="fill:light-dark(#000,#fff)"><text x="806" y="104.01">userID:                          INT</text></g></g></g><g data-cell-id="25"><g transform="translate(0.5,0.5)"><rect width="270" height="25.56" x="800" y="110.56" fill="none" stroke="#000" pointer-events="all" style="stroke:light-dark(#000,#ededed)"/></g><g><g clip-path="url(#mx-clip-804-114-262-28-0)" font-family="Helvetica" font-size="15" style="fill:light-dark(#000,#fff)"><text x="806" y="129.56">location:                        VARCHAR(15)</text></g></g></g></g><g data-cell-id="26"><g transform="translate(0.5,0.5)"><rect width="270" height="25.56" x="800" y="136.22" fill="none" stroke="#000" pointer-events="all" style="stroke:light-dark(#000,#ededed)"/></g><g><g clip-path="url(#mx-clip-804-139-262-28-0)" font-family="Helvetica" font-size="15" style="fill:light-dark(#000,#fff)"><text x="806" y="155.22">caption:                        VARCHAR(100) </text></g></g></g><g data-cell-id="27"><g transform="translate(0.5,0.5)"><rect width="270" height="25.56" x="800" y="161.77" fill="none" stroke="#000" pointer-events="all" style="stroke:light-dark(#000,#ededed)"/></g><g><g clip-path="url(#mx-clip-804-165-262-28-0)" font-family="Helvetica" font-size="15" style="fill:light-dark(#000,#fff)"><text x="806" y="180.77">creationTime:               VARCHAR(15)</text></g></g></g><g data-cell-id="28"><g transform="translate(0.5,0.5)"><rect width="270" height="25.56" x="800" y="187.33" fill="none" stroke="#000" pointer-events="all" style="stroke:light-dark(#000,#ededed)"/></g><g><g clip-path="url(#mx-clip-804-190-262-28-0)" font-family="Helvetica" font-size="15" style="fill:light-dark(#000,#fff)"><text x="806" y="206.33">videoPath:                    VARCHAR(256)</text></g></g></g></g></g></g></svg>