<svg xmlns="http://www.w3.org/2000/svg" width="941" height="373" style="background:0 0;background-color:transparent" viewBox="0 0 941 373"><defs><clipPath id="mx-clip-232-61-202-26-0"><rect width="202" height="26" x="232" y="61"/></clipPath><clipPath id="mx-clip-232-87-202-26-0"><rect width="202" height="26" x="232" y="87"/></clipPath><clipPath id="mx-clip-232-113-202-26-0"><rect width="202" height="26" x="232" y="113"/></clipPath><clipPath id="mx-clip-232-139-202-26-0"><rect width="202" height="26" x="232" y="139"/></clipPath><clipPath id="mx-clip-232-165-202-26-0"><rect width="202" height="26" x="232" y="165"/></clipPath><clipPath id="mx-clip-232-191-202-26-0"><rect width="202" height="26" x="232" y="191"/></clipPath><clipPath id="mx-clip-232-217-202-26-0"><rect width="202" height="26" x="232" y="217"/></clipPath><clipPath id="mx-clip-232-243-202-26-0"><rect width="202" height="26" x="232" y="243"/></clipPath><clipPath id="mx-clip-32-61-172-26-0"><rect width="172" height="26" x="32" y="61"/></clipPath><clipPath id="mx-clip-32-87-172-26-0"><rect width="172" height="26" x="32" y="87"/></clipPath><clipPath id="mx-clip-32-113-172-26-0"><rect width="172" height="26" x="32" y="113"/></clipPath><clipPath id="mx-clip-32-139-172-26-0"><rect width="172" height="26" x="32" y="139"/></clipPath><clipPath id="mx-clip-32-165-172-26-0"><rect width="172" height="26" x="32" y="165"/></clipPath><clipPath id="mx-clip-232-269-202-26-0"><rect width="202" height="26" x="232" y="269"/></clipPath><clipPath id="mx-clip-723-61-183-26-0"><rect width="183" height="26" x="723" y="61"/></clipPath><clipPath id="mx-clip-723-87-183-26-0"><rect width="183" height="26" x="723" y="87"/></clipPath><clipPath id="mx-clip-723-113-183-26-0"><rect width="183" height="26" x="723" y="113"/></clipPath><clipPath id="mx-clip-723-139-183-26-0"><rect width="183" height="26" x="723" y="139"/></clipPath><clipPath id="mx-clip-723-165-183-26-0"><rect width="183" height="26" x="723" y="165"/></clipPath><clipPath id="mx-clip-723-191-183-26-0"><rect width="183" height="26" x="723" y="191"/></clipPath><clipPath id="mx-clip-462-61-234-26-0"><rect width="234" height="26" x="462" y="61"/></clipPath><clipPath id="mx-clip-462-87-234-26-0"><rect width="234" height="26" x="462" y="87"/></clipPath><clipPath id="mx-clip-462-112-234-26-0"><rect width="234" height="26" x="462" y="112"/></clipPath><clipPath id="mx-clip-462-138-234-26-0"><rect width="234" height="26" x="462" y="138"/></clipPath><clipPath id="mx-clip-462-163-234-26-0"><rect width="234" height="26" x="462" y="163"/></clipPath><clipPath id="mx-clip-462-188-234-26-0"><rect width="234" height="26" x="462" y="188"/></clipPath><clipPath id="mx-clip-462-214-234-26-0"><rect width="234" height="26" x="462" y="214"/></clipPath><clipPath id="mx-clip-232-295-202-26-0"><rect width="202" height="26" x="232" y="295"/></clipPath><clipPath id="mx-clip-232-321-202-26-0"><rect width="202" height="26" x="232" y="321"/></clipPath></defs><g><g data-cell-id="0"><g data-cell-id="1"><g data-cell-id="35"><g transform="translate(0.5,0.5)"><rect width="920" height="352" x="10" y="10" fill="#fff" stroke="#000" pointer-events="all" style="fill:light-dark(#fff,var(--ge-dark-color, #121212));stroke:light-dark(#000,#fff)"/></g></g><g data-cell-id="2"><g transform="translate(0.5,0.5)"><path fill="#ffce9f" stroke="#000" stroke-miterlimit="10" d="M 228 56 L 228 30 L 438 30 L 438 56" pointer-events="all" style="fill:light-dark(#ffce9f,#5a3008);stroke:light-dark(#000,#fff)"/><path fill="none" stroke="#000" stroke-miterlimit="10" d="M 228 56 L 228 134 L 438 134 L 438 56" pointer-events="none" style="stroke:light-dark(#000,#fff)"/><path fill="none" stroke="#000" stroke-miterlimit="10" d="M 228 56 L 438 56" pointer-events="none" style="stroke:light-dark(#000,#fff)"/></g><g><g font-family="Helvetica" font-size="14" style="fill:light-dark(#000,#fff)" text-anchor="middle"><text x="333" y="49">Video</text></g></g><g data-cell-id="3"><g transform="translate(0.5,0.5)"><rect width="210" height="26" x="228" y="56" fill="none" pointer-events="all"/></g><g><g clip-path="url(#mx-clip-232-61-202-26-0)" font-family="Helvetica" font-size="14" style="fill:light-dark(#000,#fff)"><text x="234" y="76">id:                      INT</text></g></g></g><g data-cell-id="4"><g transform="translate(0.5,0.5)"><rect width="210" height="26" x="228" y="82" fill="none" stroke="#000" pointer-events="all" style="stroke:light-dark(#000,#ededed)"/></g><g><g clip-path="url(#mx-clip-232-87-202-26-0)" font-family="Helvetica" font-size="14" style="fill:light-dark(#000,#fff)"><text x="234" y="102">title:                   VARCHAR(256)</text></g></g></g><g data-cell-id="5"><g transform="translate(0.5,0.5)"><rect width="210" height="26" x="228" y="108" fill="none" stroke="#000" pointer-events="all" style="stroke:light-dark(#000,#ededed)"/></g><g><g clip-path="url(#mx-clip-232-113-202-26-0)" font-family="Helvetica" font-size="14" style="fill:light-dark(#000,#fff)"><text x="234" y="128">desc:                 VARCHAR</text></g></g></g></g><g data-cell-id="6"><g transform="translate(0.5,0.5)"><rect width="210" height="26" x="228" y="134" fill="none" stroke="#000" pointer-events="all" style="stroke:light-dark(#000,#ededed)"/></g><g><g clip-path="url(#mx-clip-232-139-202-26-0)" font-family="Helvetica" font-size="14" style="fill:light-dark(#000,#fff)"><text x="234" y="154">upload_date:     DATE</text></g></g></g><g data-cell-id="7"><g transform="translate(0.5,0.5)"><rect width="210" height="26" x="228" y="160" fill="none" stroke="#000" pointer-events="all" style="stroke:light-dark(#000,#ededed)"/></g><g><g clip-path="url(#mx-clip-232-165-202-26-0)" font-family="Helvetica" font-size="14" style="fill:light-dark(#000,#fff)"><text x="234" y="180">channel_id:       INT</text></g></g></g><g data-cell-id="8"><g transform="translate(0.5,0.5)"><rect width="210" height="26" x="228" y="186" fill="none" stroke="#000" pointer-events="all" style="stroke:light-dark(#000,#ededed)"/></g><g><g clip-path="url(#mx-clip-232-191-202-26-0)" font-family="Helvetica" font-size="14" style="fill:light-dark(#000,#fff)"><text x="234" y="206">likes_count:       INT</text></g></g></g><g data-cell-id="9"><g transform="translate(0.5,0.5)"><rect width="210" height="26" x="228" y="212" fill="none" stroke="#000" pointer-events="all" style="stroke:light-dark(#000,#ededed)"/></g><g><g clip-path="url(#mx-clip-232-217-202-26-0)" font-family="Helvetica" font-size="14" style="fill:light-dark(#000,#fff)"><text x="234" y="232">dislikes_count:  INT</text></g></g></g><g data-cell-id="10"><g transform="translate(0.5,0.5)"><rect width="210" height="26" x="228" y="238" fill="none" stroke="#000" pointer-events="all" style="stroke:light-dark(#000,#ededed)"/></g><g><g clip-path="url(#mx-clip-232-243-202-26-0)" font-family="Helvetica" font-size="14" style="fill:light-dark(#000,#fff)"><text x="234" y="258">views_count:     INT</text></g></g></g><g data-cell-id="11"><g transform="translate(0.5,0.5)"><path fill="#dae8fc" stroke="#000" stroke-miterlimit="10" d="M 28 56 L 28 30 L 208 30 L 208 56" pointer-events="all" style="fill:light-dark(#dae8fc,#1d293b);stroke:light-dark(#000,#fff)"/><path fill="none" stroke="#000" stroke-miterlimit="10" d="M 28 56 L 28 134 L 208 134 L 208 56" pointer-events="none" style="stroke:light-dark(#000,#fff)"/><path fill="none" stroke="#000" stroke-miterlimit="10" d="M 28 56 L 208 56" pointer-events="none" style="stroke:light-dark(#000,#fff)"/></g><g><g font-family="Helvetica" font-size="14" style="fill:light-dark(#000,#fff)" text-anchor="middle"><text x="118" y="49">User</text></g></g><g data-cell-id="12"><g transform="translate(0.5,0.5)"><rect width="180" height="26" x="28" y="56" fill="none" pointer-events="all"/></g><g><g clip-path="url(#mx-clip-32-61-172-26-0)" font-family="Helvetica" font-size="14" style="fill:light-dark(#000,#fff)"><text x="34" y="76">id:                    INT</text></g></g></g><g data-cell-id="13"><g transform="translate(0.5,0.5)"><rect width="180" height="26" x="28" y="82" fill="none" stroke="#000" pointer-events="all" style="stroke:light-dark(#000,#ededed)"/></g><g><g clip-path="url(#mx-clip-32-87-172-26-0)" font-family="Helvetica" font-size="14" style="fill:light-dark(#000,#fff)"><text x="34" y="102">user_email:     VARCHAR</text></g></g></g><g data-cell-id="14"><g transform="translate(0.5,0.5)"><rect width="180" height="26" x="28" y="108" fill="none" stroke="#000" pointer-events="all" style="stroke:light-dark(#000,#ededed)"/></g><g><g clip-path="url(#mx-clip-32-113-172-26-0)" font-family="Helvetica" font-size="14" style="fill:light-dark(#000,#fff)"><text x="34" y="128">username:       VARCHAR</text></g></g></g></g><g data-cell-id="15"><g transform="translate(0.5,0.5)"><rect width="180" height="26" x="28" y="134" fill="none" stroke="#000" pointer-events="all" style="stroke:light-dark(#000,#ededed)"/></g><g><g clip-path="url(#mx-clip-32-139-172-26-0)" font-family="Helvetica" font-size="14" style="fill:light-dark(#000,#fff)"><text x="34" y="154">password:       VARCHAR</text></g></g></g><g data-cell-id="16"><g transform="translate(0.5,0.5)"><rect width="180" height="26" x="28" y="160" fill="none" stroke="#000" pointer-events="all" style="stroke:light-dark(#000,#ededed)"/></g><g><g clip-path="url(#mx-clip-32-165-172-26-0)" font-family="Helvetica" font-size="14" style="fill:light-dark(#000,#fff)"><text x="34" y="180">DOB:               DATE</text></g></g></g><g data-cell-id="17"><g transform="translate(0.5,0.5)"><rect width="210" height="26" x="228" y="264" fill="none" stroke="#000" pointer-events="all" style="stroke:light-dark(#000,#ededed)"/></g><g><g clip-path="url(#mx-clip-232-269-202-26-0)" font-family="Helvetica" font-size="14" style="fill:light-dark(#000,#fff)"><text x="234" y="284">video_URI:        VARCHAR</text></g></g></g><g data-cell-id="18"><g transform="translate(0.5,0.5)"><path fill="#e1d5e7" stroke="#000" stroke-miterlimit="10" d="M 719 56 L 719 30 L 910 30 L 910 56" pointer-events="all" style="fill:light-dark(#e1d5e7,#392f3f);stroke:light-dark(#000,#fff)"/><path fill="none" stroke="#000" stroke-miterlimit="10" d="M 719 56 L 719 134 L 910 134 L 910 56" pointer-events="none" style="stroke:light-dark(#000,#fff)"/><path fill="none" stroke="#000" stroke-miterlimit="10" d="M 719 56 L 910 56" pointer-events="none" style="stroke:light-dark(#000,#fff)"/></g><g><g font-family="Helvetica" font-size="14" style="fill:light-dark(#000,#fff)" text-anchor="middle"><text x="814.5" y="49">Channel</text></g></g><g data-cell-id="19"><g transform="translate(0.5,0.5)"><rect width="191" height="26" x="719" y="56" fill="none" pointer-events="all"/></g><g><g clip-path="url(#mx-clip-723-61-183-26-0)" font-family="Helvetica" font-size="14" style="fill:light-dark(#000,#fff)"><text x="725" y="76">id:                      INT</text></g></g></g><g data-cell-id="20"><g transform="translate(0.5,0.5)"><rect width="191" height="26" x="719" y="82" fill="none" stroke="#000" pointer-events="all" style="stroke:light-dark(#000,#ededed)"/></g><g><g clip-path="url(#mx-clip-723-87-183-26-0)" font-family="Helvetica" font-size="14" style="fill:light-dark(#000,#fff)"><text x="725" y="102">channel_name:  VARCHAR</text></g></g></g><g data-cell-id="21"><g transform="translate(0.5,0.5)"><rect width="191" height="26" x="719" y="108" fill="none" stroke="#000" pointer-events="all" style="stroke:light-dark(#000,#ededed)"/></g><g><g clip-path="url(#mx-clip-723-113-183-26-0)" font-family="Helvetica" font-size="14" style="fill:light-dark(#000,#fff)"><text x="725" y="128">user_id:              INT</text></g></g></g></g><g data-cell-id="22"><g transform="translate(0.5,0.5)"><rect width="191" height="26" x="719" y="134" fill="none" stroke="#000" pointer-events="all" style="stroke:light-dark(#000,#ededed)"/></g><g><g clip-path="url(#mx-clip-723-139-183-26-0)" font-family="Helvetica" font-size="14" style="fill:light-dark(#000,#fff)"><text x="725" y="154">subscribers:       INT</text></g></g></g><g data-cell-id="23"><g transform="translate(0.5,0.5)"><rect width="191" height="26" x="719" y="160" fill="none" stroke="#000" pointer-events="all" style="stroke:light-dark(#000,#ededed)"/></g><g><g clip-path="url(#mx-clip-723-165-183-26-0)" font-family="Helvetica" font-size="14" style="fill:light-dark(#000,#fff)"><text x="725" y="180">description:        VARCHAR</text></g></g></g><g data-cell-id="24"><g transform="translate(0.5,0.5)"><rect width="191" height="26" x="719" y="186" fill="none" stroke="#000" pointer-events="all" style="stroke:light-dark(#000,#ededed)"/></g><g><g clip-path="url(#mx-clip-723-191-183-26-0)" font-family="Helvetica" font-size="14" style="fill:light-dark(#000,#fff)"><text x="725" y="206">category_id:       INT</text></g></g></g><g data-cell-id="25"><g transform="translate(0.5,0.5)"><path fill="#fff2cc" stroke="#000" stroke-miterlimit="10" d="M 458 56 L 458 30 L 700 30 L 700 56" pointer-events="all" style="fill:light-dark(#fff2cc,#281d00);stroke:light-dark(#000,#fff)"/><path fill="none" stroke="#000" stroke-miterlimit="10" d="M 458 56 L 458 132.67 L 700 132.67 L 700 56" pointer-events="none" style="stroke:light-dark(#000,#fff)"/><path fill="none" stroke="#000" stroke-miterlimit="10" d="M 458 56 L 700 56" pointer-events="none" style="stroke:light-dark(#000,#fff)"/></g><g><g font-family="Helvetica" font-size="14" style="fill:light-dark(#000,#fff)" text-anchor="middle"><text x="579" y="49">Comments</text></g></g><g data-cell-id="26"><g transform="translate(0.5,0.5)"><rect width="242" height="25.56" x="458" y="56" fill="none" pointer-events="all"/></g><g><g clip-path="url(#mx-clip-462-61-234-26-0)" font-family="Helvetica" font-size="14" style="fill:light-dark(#000,#fff)"><text x="464" y="76">id:                       INT</text></g></g></g><g data-cell-id="27"><g transform="translate(0.5,0.5)"><rect width="242" height="25.56" x="458" y="81.56" fill="none" stroke="#000" pointer-events="all" style="stroke:light-dark(#000,#ededed)"/></g><g><g clip-path="url(#mx-clip-462-87-234-26-0)" font-family="Helvetica" font-size="14" style="fill:light-dark(#000,#fff)"><text x="464" y="101.56">video_id:            INT</text></g></g></g><g data-cell-id="28"><g transform="translate(0.5,0.5)"><rect width="242" height="25.56" x="458" y="107.11" fill="none" stroke="#000" pointer-events="all" style="stroke:light-dark(#000,#ededed)"/></g><g><g clip-path="url(#mx-clip-462-112-234-26-0)" font-family="Helvetica" font-size="14" style="fill:light-dark(#000,#fff)"><text x="464" y="127.11">user_id:              INT</text></g></g></g></g><g data-cell-id="29"><g transform="translate(0.5,0.5)"><rect width="242" height="25.56" x="458" y="133.22" fill="none" stroke="#000" pointer-events="all" style="stroke:light-dark(#000,#ededed)"/></g><g><g clip-path="url(#mx-clip-462-138-234-26-0)" font-family="Helvetica" font-size="14" style="fill:light-dark(#000,#fff)"><text x="464" y="153.22">date_posted:     DATE</text></g></g></g><g data-cell-id="30"><g transform="translate(0.5,0.5)"><rect width="242" height="25.56" x="458" y="157.78" fill="none" stroke="#000" pointer-events="all" style="stroke:light-dark(#000,#ededed)"/></g><g><g clip-path="url(#mx-clip-462-163-234-26-0)" font-family="Helvetica" font-size="14" style="fill:light-dark(#000,#fff)"><text x="464" y="177.78">comment_text:   VARCHAR(2048)</text></g></g></g><g data-cell-id="31"><g transform="translate(0.5,0.5)"><rect width="242" height="25.56" x="458" y="183.33" fill="none" stroke="#000" pointer-events="all" style="stroke:light-dark(#000,#ededed)"/></g><g><g clip-path="url(#mx-clip-462-188-234-26-0)" font-family="Helvetica" font-size="14" style="fill:light-dark(#000,#fff)"><text x="464" y="203.33">likes_count:        INT</text></g></g></g><g data-cell-id="32"><g transform="translate(0.5,0.5)"><rect width="242" height="25.56" x="458" y="208.89" fill="none" stroke="#000" pointer-events="all" style="stroke:light-dark(#000,#ededed)"/></g><g><g clip-path="url(#mx-clip-462-214-234-26-0)" font-family="Helvetica" font-size="14" style="fill:light-dark(#000,#fff)"><text x="464" y="228.89">dislikes_count:   INT</text></g></g></g><g data-cell-id="33"><g transform="translate(0.5,0.5)"><rect width="210" height="26" x="228" y="290" fill="none" stroke="#000" pointer-events="all" style="stroke:light-dark(#000,#ededed)"/></g><g><g clip-path="url(#mx-clip-232-295-202-26-0)" font-family="Helvetica" font-size="14" style="fill:light-dark(#000,#fff)"><text x="234" y="310">privacy_level:    SMALLINT</text></g></g></g><g data-cell-id="34"><g transform="translate(0.5,0.5)"><rect width="210" height="26" x="228" y="316" fill="none" stroke="#000" pointer-events="all" style="stroke:light-dark(#000,#ededed)"/></g><g><g clip-path="url(#mx-clip-232-321-202-26-0)" font-family="Helvetica" font-size="14" style="fill:light-dark(#000,#fff)"><text x="234" y="336">default_lang:     VARCHAR</text></g></g></g></g></g></g></svg>