<svg xmlns="http://www.w3.org/2000/svg" width="1141" height="311" style="background:0 0;background-color:transparent" viewBox="0 0 1141 311"><defs><clipPath id="mx-clip-314-69-232-26-0"><rect width="232" height="26" x="314" y="69"/></clipPath><clipPath id="mx-clip-314-95-232-26-0"><rect width="232" height="26" x="314" y="95"/></clipPath><clipPath id="mx-clip-314-121-232-26-0"><rect width="232" height="26" x="314" y="121"/></clipPath><clipPath id="mx-clip-314-147-232-26-0"><rect width="232" height="26" x="314" y="147"/></clipPath><clipPath id="mx-clip-34-69-232-26-0"><rect width="232" height="26" x="34" y="69"/></clipPath><clipPath id="mx-clip-34-95-232-26-0"><rect width="232" height="26" x="34" y="95"/></clipPath><clipPath id="mx-clip-34-121-232-26-0"><rect width="232" height="26" x="34" y="121"/></clipPath><clipPath id="mx-clip-34-147-232-26-0"><rect width="232" height="26" x="34" y="147"/></clipPath><clipPath id="mx-clip-34-173-232-26-0"><rect width="232" height="26" x="34" y="173"/></clipPath><clipPath id="mx-clip-874-69-232-26-0"><rect width="232" height="26" x="874" y="69"/></clipPath><clipPath id="mx-clip-874-95-232-26-0"><rect width="232" height="26" x="874" y="95"/></clipPath><clipPath id="mx-clip-594-69-232-26-0"><rect width="232" height="26" x="594" y="69"/></clipPath><clipPath id="mx-clip-594-95-232-26-0"><rect width="232" height="26" x="594" y="95"/></clipPath><clipPath id="mx-clip-594-120-232-26-0"><rect width="232" height="26" x="594" y="120"/></clipPath><clipPath id="mx-clip-594-146-232-26-0"><rect width="232" height="26" x="594" y="146"/></clipPath><clipPath id="mx-clip-594-171-232-26-0"><rect width="232" height="26" x="594" y="171"/></clipPath><clipPath id="mx-clip-314-173-232-26-0"><rect width="232" height="26" x="314" y="173"/></clipPath><clipPath id="mx-clip-314-199-232-26-0"><rect width="232" height="26" x="314" y="199"/></clipPath><clipPath id="mx-clip-314-225-232-26-0"><rect width="232" height="26" x="314" y="225"/></clipPath><clipPath id="mx-clip-314-251-232-26-0"><rect width="232" height="26" x="314" y="251"/></clipPath><clipPath id="mx-clip-874-121-232-26-0"><rect width="232" height="26" x="874" y="121"/></clipPath><clipPath id="mx-clip-874-146-232-26-0"><rect width="232" height="26" x="874" y="146"/></clipPath><clipPath id="mx-clip-874-172-232-26-0"><rect width="232" height="26" x="874" y="172"/></clipPath><clipPath id="mx-clip-874-198-232-26-0"><rect width="232" height="26" x="874" y="198"/></clipPath></defs><g><g data-cell-id="0"><g data-cell-id="1"><g data-cell-id="2"><g transform="translate(0.5,0.5)"><rect width="1120" height="290" x="10" y="9.55" fill="#fff" stroke="#000" pointer-events="all" style="fill:light-dark(#fff,var(--ge-dark-color, #121212));stroke:light-dark(#000,#fff)"/></g></g><g data-cell-id="3"><g transform="translate(0.5,0.5)"><path fill="#ffce9f" stroke="#000" stroke-miterlimit="10" d="M 310 64 L 310 38 L 550 38 L 550 64" pointer-events="all" style="fill:light-dark(#ffce9f,#5a3008);stroke:light-dark(#000,#fff)"/><path fill="none" stroke="#000" stroke-miterlimit="10" d="M 310 64 L 310 142 L 550 142 L 550 64" pointer-events="none" style="stroke:light-dark(#000,#fff)"/><path fill="none" stroke="#000" stroke-miterlimit="10" d="M 310 64 L 550 64" pointer-events="none" style="stroke:light-dark(#000,#fff)"/></g><g><g font-family="Helvetica" font-size="14" style="fill:light-dark(#000,#fff)" text-anchor="middle"><text x="430" y="57">Drivers</text></g></g><g data-cell-id="4"><g transform="translate(0.5,0.5)"><rect width="240" height="26" x="310" y="64" fill="none" pointer-events="all"/></g><g><g clip-path="url(#mx-clip-314-69-232-26-0)" font-family="Helvetica" font-size="14" style="fill:light-dark(#000,#fff)"><text x="316" y="84">Driver_ID:                        INT</text></g></g></g><g data-cell-id="5"><g transform="translate(0.5,0.5)"><rect width="240" height="26" x="310" y="90" fill="none" stroke="#000" pointer-events="all" style="stroke:light-dark(#000,#ededed)"/></g><g><g clip-path="url(#mx-clip-314-95-232-26-0)" font-family="Helvetica" font-size="14" style="fill:light-dark(#000,#fff)"><text x="316" y="110">Name:                             VARCHAR</text></g></g></g><g data-cell-id="6"><g transform="translate(0.5,0.5)"><rect width="240" height="26" x="310" y="116" fill="none" stroke="#000" pointer-events="all" style="stroke:light-dark(#000,#ededed)"/></g><g><g clip-path="url(#mx-clip-314-121-232-26-0)" font-family="Helvetica" font-size="13" style="fill:light-dark(#000,#fff)"><text x="316" y="135">Email:                                 VARCHAR</text></g></g></g></g><g data-cell-id="7"><g transform="translate(0.5,0.5)"><rect width="240" height="26" x="310" y="141.67" fill="none" stroke="#000" pointer-events="all" style="stroke:light-dark(#000,#ededed)"/></g><g><g clip-path="url(#mx-clip-314-147-232-26-0)" font-family="Helvetica" font-size="14" style="fill:light-dark(#000,#fff)"><text x="316" y="161.67">Photo:                              VARCHAR</text></g></g></g><g data-cell-id="8"><g transform="translate(0.5,0.5)"><path fill="#ffce9f" stroke="#000" stroke-miterlimit="10" d="M 30 64 L 30 38 L 270 38 L 270 64" pointer-events="all" style="fill:light-dark(#ffce9f,#5a3008);stroke:light-dark(#000,#fff)"/><path fill="none" stroke="#000" stroke-miterlimit="10" d="M 30 64 L 30 142 L 270 142 L 270 64" pointer-events="none" style="stroke:light-dark(#000,#fff)"/><path fill="none" stroke="#000" stroke-miterlimit="10" d="M 30 64 L 270 64" pointer-events="none" style="stroke:light-dark(#000,#fff)"/></g><g><g font-family="Helvetica" font-size="14" style="fill:light-dark(#000,#fff)" text-anchor="middle"><text x="150" y="57">Riders</text></g></g><g data-cell-id="9"><g transform="translate(0.5,0.5)"><rect width="240" height="26" x="30" y="64" fill="none" pointer-events="all"/></g><g><g clip-path="url(#mx-clip-34-69-232-26-0)" font-family="Helvetica" font-size="14" style="fill:light-dark(#000,#fff)"><text x="36" y="84">Rider_ID:                         INT</text></g></g></g><g data-cell-id="10"><g transform="translate(0.5,0.5)"><rect width="240" height="26" x="30" y="90" fill="none" stroke="#000" pointer-events="all" style="stroke:light-dark(#000,#ededed)"/></g><g><g clip-path="url(#mx-clip-34-95-232-26-0)" font-family="Helvetica" font-size="14" style="fill:light-dark(#000,#fff)"><text x="36" y="110">Name                               VARCHAR</text></g></g></g><g data-cell-id="11"><g transform="translate(0.5,0.5)"><rect width="240" height="26" x="30" y="116" fill="none" stroke="#000" pointer-events="all" style="stroke:light-dark(#000,#ededed)"/></g><g><g clip-path="url(#mx-clip-34-121-232-26-0)" font-family="Helvetica" font-size="14" style="fill:light-dark(#000,#fff)"><text x="36" y="136">Email:                              VARCHAR</text></g></g></g></g><g data-cell-id="12"><g transform="translate(0.5,0.5)"><rect width="240" height="26" x="30" y="142" fill="none" stroke="#000" pointer-events="all" style="stroke:light-dark(#000,#ededed)"/></g><g><g clip-path="url(#mx-clip-34-147-232-26-0)" font-family="Helvetica" font-size="14" style="fill:light-dark(#000,#fff)"><text x="36" y="162">Photo:                              VARCHAR</text></g></g></g><g data-cell-id="13"><g transform="translate(0.5,0.5)"><rect width="240" height="26" x="30" y="168" fill="none" stroke="#000" pointer-events="all" style="stroke:light-dark(#000,#ededed)"/></g><g><g clip-path="url(#mx-clip-34-173-232-26-0)" font-family="Helvetica" font-size="14" style="fill:light-dark(#000,#fff)"><text x="36" y="188">Phone:                             INT</text></g></g></g><g data-cell-id="14"><g transform="translate(0.5,0.5)"><path fill="#ffce9f" stroke="#000" stroke-miterlimit="10" d="M 870 64 L 870 38 L 1110 38 L 1110 64" pointer-events="all" style="fill:light-dark(#ffce9f,#5a3008);stroke:light-dark(#000,#fff)"/><path fill="none" stroke="#000" stroke-miterlimit="10" d="M 870 64 L 870 116 L 1110 116 L 1110 64" pointer-events="none" style="stroke:light-dark(#000,#fff)"/><path fill="none" stroke="#000" stroke-miterlimit="10" d="M 870 64 L 1110 64" pointer-events="none" style="stroke:light-dark(#000,#fff)"/></g><g><g font-family="Helvetica" font-size="14" style="fill:light-dark(#000,#fff)" text-anchor="middle"><text x="990" y="57">Trips</text></g></g><g data-cell-id="15"><g transform="translate(0.5,0.5)"><rect width="240" height="26" x="870" y="64" fill="none" pointer-events="all"/></g><g><g clip-path="url(#mx-clip-874-69-232-26-0)" font-family="Helvetica" font-size="14" style="fill:light-dark(#000,#fff)"><text x="876" y="84">Trip_ID:                           INT</text></g></g></g><g data-cell-id="16"><g transform="translate(0.5,0.5)"><rect width="240" height="26" x="870" y="90" fill="none" stroke="#000" pointer-events="all" style="stroke:light-dark(#000,#ededed)"/></g><g><g clip-path="url(#mx-clip-874-95-232-26-0)" font-family="Helvetica" font-size="14" style="fill:light-dark(#000,#fff)"><text x="876" y="110">Rider_ID:                        INT</text></g></g></g></g><g data-cell-id="17"><g transform="translate(0.5,0.5)"><path fill="#ffce9f" stroke="#000" stroke-miterlimit="10" d="M 590 64 L 590 38 L 830 38 L 830 64" pointer-events="all" style="fill:light-dark(#ffce9f,#5a3008);stroke:light-dark(#000,#fff)"/><path fill="none" stroke="#000" stroke-miterlimit="10" d="M 590 64 L 590 140.67 L 830 140.67 L 830 64" pointer-events="none" style="stroke:light-dark(#000,#fff)"/><path fill="none" stroke="#000" stroke-miterlimit="10" d="M 590 64 L 830 64" pointer-events="none" style="stroke:light-dark(#000,#fff)"/></g><g><g font-family="Helvetica" font-size="14" style="fill:light-dark(#000,#fff)" text-anchor="middle"><text x="710" y="57">Driver_location</text></g></g><g data-cell-id="18"><g transform="translate(0.5,0.5)"><rect width="240" height="25.56" x="590" y="64" fill="none" pointer-events="all"/></g><g><g clip-path="url(#mx-clip-594-69-232-26-0)" font-family="Helvetica" font-size="14" style="fill:light-dark(#000,#fff)"><text x="596" y="84">Driver_ID:                        INT</text></g></g></g><g data-cell-id="19"><g transform="translate(0.5,0.5)"><rect width="240" height="25.56" x="590" y="89.56" fill="none" stroke="#000" pointer-events="all" style="stroke:light-dark(#000,#ededed)"/></g><g><g clip-path="url(#mx-clip-594-95-232-26-0)" font-family="Helvetica" font-size="14" style="fill:light-dark(#000,#fff)"><text x="596" y="109.56">Old latitude:                     DECIMAL</text></g></g></g><g data-cell-id="20"><g transform="translate(0.5,0.5)"><rect width="240" height="25.56" x="590" y="115.11" fill="none" stroke="#000" pointer-events="all" style="stroke:light-dark(#000,#ededed)"/></g><g><g clip-path="url(#mx-clip-594-120-232-26-0)" font-family="Helvetica" font-size="13" style="fill:light-dark(#000,#fff)"><text x="596" y="134.11">Old longitude:                     DECIMAL</text></g></g></g></g><g data-cell-id="21"><g transform="translate(0.5,0.5)"><rect width="240" height="25.56" x="590" y="140.77" fill="none" stroke="#000" pointer-events="all" style="stroke:light-dark(#000,#ededed)"/></g><g><g clip-path="url(#mx-clip-594-146-232-26-0)" font-family="Helvetica" font-size="14" style="fill:light-dark(#000,#fff)"><text x="596" y="160.77">New latitude:                   DECIMAL</text></g></g></g><g data-cell-id="22"><g transform="translate(0.5,0.5)"><rect width="240" height="25.56" x="590" y="166.32" fill="none" stroke="#000" pointer-events="all" style="stroke:light-dark(#000,#ededed)"/></g><g><g clip-path="url(#mx-clip-594-171-232-26-0)" font-family="Helvetica" font-size="14" style="fill:light-dark(#000,#fff)"><text x="596" y="186.32">New longitude:                DECIMAL</text></g></g></g><g data-cell-id="23"><g transform="translate(0.5,0.5)"><rect width="240" height="26" x="310" y="167.55" fill="none" stroke="#000" pointer-events="all" style="stroke:light-dark(#000,#ededed)"/></g><g><g clip-path="url(#mx-clip-314-173-232-26-0)" font-family="Helvetica" font-size="14" style="fill:light-dark(#000,#fff)"><text x="316" y="187.55">Phone:                             INT</text></g></g></g><g data-cell-id="24"><g transform="translate(0.5,0.5)"><rect width="240" height="26" x="310" y="193.55" fill="none" stroke="#000" pointer-events="all" style="stroke:light-dark(#000,#ededed)"/></g><g><g clip-path="url(#mx-clip-314-199-232-26-0)" font-family="Helvetica" font-size="14" style="fill:light-dark(#000,#fff)"><text x="316" y="213.55">Vehicle_type:                   VARCHAR</text></g></g></g><g data-cell-id="25"><g transform="translate(0.5,0.5)"><rect width="240" height="26" x="310" y="219.55" fill="none" stroke="#000" pointer-events="all" style="stroke:light-dark(#000,#ededed)"/></g><g><g clip-path="url(#mx-clip-314-225-232-26-0)" font-family="Helvetica" font-size="14" style="fill:light-dark(#000,#fff)"><text x="316" y="239.55">Vehicle_name:                 VARCHAR</text></g></g></g><g data-cell-id="26"><g transform="translate(0.5,0.5)"><rect width="240" height="26" x="310" y="245.55" fill="none" stroke="#000" pointer-events="all" style="stroke:light-dark(#000,#ededed)"/></g><g><g clip-path="url(#mx-clip-314-251-232-26-0)" font-family="Helvetica" font-size="14" style="fill:light-dark(#000,#fff)"><text x="316" y="265.55">Vehicle_number:             INT</text></g></g></g><g data-cell-id="27"><g transform="translate(0.5,0.5)"><rect width="240" height="26" x="870" y="115.67" fill="none" stroke="#000" pointer-events="all" style="stroke:light-dark(#000,#ededed)"/></g><g><g clip-path="url(#mx-clip-874-121-232-26-0)" font-family="Helvetica" font-size="14" style="fill:light-dark(#000,#fff)"><text x="876" y="135.67">Driver_ID:                       INT</text></g></g></g><g data-cell-id="28"><g transform="translate(0.5,0.5)"><rect width="240" height="26" x="870" y="141.32" fill="none" stroke="#000" pointer-events="all" style="stroke:light-dark(#000,#ededed)"/></g><g><g clip-path="url(#mx-clip-874-146-232-26-0)" font-family="Helvetica" font-size="14" style="fill:light-dark(#000,#fff)"><text x="876" y="161.32">Location:                         DECIMAL</text></g></g></g><g data-cell-id="29"><g transform="translate(0.5,0.5)"><rect width="240" height="26" x="870" y="166.88" fill="none" stroke="#000" pointer-events="all" style="stroke:light-dark(#000,#ededed)"/></g><g><g clip-path="url(#mx-clip-874-172-232-26-0)" font-family="Helvetica" font-size="14" style="fill:light-dark(#000,#fff)"><text x="876" y="186.88">ETA:                                INT</text></g></g></g><g data-cell-id="30"><g transform="translate(0.5,0.5)"><rect width="240" height="26" x="870" y="193" fill="none" stroke="#000" pointer-events="all" style="stroke:light-dark(#000,#ededed)"/></g><g><g clip-path="url(#mx-clip-874-198-232-26-0)" font-family="Helvetica" font-size="14" style="fill:light-dark(#000,#fff)"><text x="876" y="213">status:                             VARCHAR</text></g></g></g></g></g></g></svg>