<svg xmlns="http://www.w3.org/2000/svg" width="961" height="274" style="background:0 0;background-color:transparent" viewBox="0 0 961 274"><defs><clipPath id="mx-clip-314-64-202-26-0"><rect width="202" height="26" x="314" y="64"/></clipPath><clipPath id="mx-clip-314-90-202-26-0"><rect width="202" height="26" x="314" y="90"/></clipPath><clipPath id="mx-clip-314-116-202-26-0"><rect width="202" height="26" x="314" y="116"/></clipPath><clipPath id="mx-clip-34-64-262-26-0"><rect width="262" height="26" x="34" y="64"/></clipPath><clipPath id="mx-clip-34-90-262-26-0"><rect width="262" height="26" x="34" y="90"/></clipPath><clipPath id="mx-clip-34-116-262-26-0"><rect width="262" height="26" x="34" y="116"/></clipPath><clipPath id="mx-clip-34-142-262-26-0"><rect width="262" height="26" x="34" y="142"/></clipPath><clipPath id="mx-clip-34-168-262-26-0"><rect width="262" height="26" x="34" y="168"/></clipPath><clipPath id="mx-clip-774-65-152-26-0"><rect width="152" height="26" x="774" y="65"/></clipPath><clipPath id="mx-clip-774-91-152-26-0"><rect width="152" height="26" x="774" y="91"/></clipPath><clipPath id="mx-clip-534-65-222-26-0"><rect width="222" height="26" x="534" y="65"/></clipPath><clipPath id="mx-clip-534-90-222-26-0"><rect width="222" height="26" x="534" y="90"/></clipPath><clipPath id="mx-clip-534-116-222-26-0"><rect width="222" height="26" x="534" y="116"/></clipPath><clipPath id="mx-clip-534-141-222-26-0"><rect width="222" height="26" x="534" y="141"/></clipPath><clipPath id="mx-clip-534-167-222-26-0"><rect width="222" height="26" x="534" y="167"/></clipPath><clipPath id="mx-clip-34-194-262-26-0"><rect width="262" height="26" x="34" y="194"/></clipPath><clipPath id="mx-clip-34-220-262-26-0"><rect width="262" height="26" x="34" y="220"/></clipPath></defs><g><g data-cell-id="0"><g data-cell-id="1"><g data-cell-id="2"><g transform="translate(0.5,0.5)"><rect width="940" height="253" x="10" y="10" fill="#fff" stroke="#000" pointer-events="all" style="fill:light-dark(#fff,var(--ge-dark-color, #121212));stroke:light-dark(#000,#fff)"/></g></g><g data-cell-id="3"><g transform="translate(0.5,0.5)"><path fill="#ffce9f" stroke="#000" stroke-miterlimit="10" d="M 310 59 L 310 33 L 520 33 L 520 59" pointer-events="all" style="fill:light-dark(#ffce9f,#5a3008);stroke:light-dark(#000,#fff)"/><path fill="none" stroke="#000" stroke-miterlimit="10" d="M 310 59 L 310 137 L 520 137 L 520 59" pointer-events="none" style="stroke:light-dark(#000,#fff)"/><path fill="none" stroke="#000" stroke-miterlimit="10" d="M 310 59 L 520 59" pointer-events="none" style="stroke:light-dark(#000,#fff)"/></g><g><g font-family="Helvetica" font-size="14" style="fill:light-dark(#000,#fff)" text-anchor="middle"><text x="415" y="52">Photo</text></g></g><g data-cell-id="4"><g transform="translate(0.5,0.5)"><rect width="210" height="26" x="310" y="59" fill="none" pointer-events="all"/></g><g><g clip-path="url(#mx-clip-314-64-202-26-0)" font-family="Helvetica" font-size="14" style="fill:light-dark(#000,#fff)"><text x="316" y="79">Photo_ID:         INT</text></g></g></g><g data-cell-id="5"><g transform="translate(0.5,0.5)"><rect width="210" height="26" x="310" y="85" fill="none" stroke="#000" pointer-events="all" style="stroke:light-dark(#000,#ededed)"/></g><g><g clip-path="url(#mx-clip-314-90-202-26-0)" font-family="Helvetica" font-size="14" style="fill:light-dark(#000,#fff)"><text x="316" y="105">Place_ID:         INT</text></g></g></g><g data-cell-id="6"><g transform="translate(0.5,0.5)"><rect width="210" height="26" x="310" y="111" fill="none" stroke="#000" pointer-events="all" style="stroke:light-dark(#000,#ededed)"/></g><g><g clip-path="url(#mx-clip-314-116-202-26-0)" font-family="Helvetica" font-size="13" style="fill:light-dark(#000,#fff)"><text x="316" y="130">Photo_path:     VARCHAR(256)</text></g></g></g></g><g data-cell-id="7"><g transform="translate(0.5,0.5)"><path fill="#ffce9f" stroke="#000" stroke-miterlimit="10" d="M 30 59 L 30 33 L 300 33 L 300 59" pointer-events="all" style="fill:light-dark(#ffce9f,#5a3008);stroke:light-dark(#000,#fff)"/><path fill="none" stroke="#000" stroke-miterlimit="10" d="M 30 59 L 30 137 L 300 137 L 300 59" pointer-events="none" style="stroke:light-dark(#000,#fff)"/><path fill="none" stroke="#000" stroke-miterlimit="10" d="M 30 59 L 300 59" pointer-events="none" style="stroke:light-dark(#000,#fff)"/></g><g><g font-family="Helvetica" font-size="14" style="fill:light-dark(#000,#fff)" text-anchor="middle"><text x="165" y="52">Place</text></g></g><g data-cell-id="8"><g transform="translate(0.5,0.5)"><rect width="270" height="26" x="30" y="59" fill="none" pointer-events="all"/></g><g><g clip-path="url(#mx-clip-34-64-262-26-0)" font-family="Helvetica" font-size="14" style="fill:light-dark(#000,#fff)"><text x="36" y="79">Place_ID:                     INT</text></g></g></g><g data-cell-id="9"><g transform="translate(0.5,0.5)"><rect width="270" height="26" x="30" y="85" fill="none" stroke="#000" pointer-events="all" style="stroke:light-dark(#000,#ededed)"/></g><g><g clip-path="url(#mx-clip-34-90-262-26-0)" font-family="Helvetica" font-size="14" style="fill:light-dark(#000,#fff)"><text x="36" y="105">Name_of_place:          VARCHAR(256)</text></g></g></g><g data-cell-id="10"><g transform="translate(0.5,0.5)"><rect width="270" height="26" x="30" y="111" fill="none" stroke="#000" pointer-events="all" style="stroke:light-dark(#000,#ededed)"/></g><g><g clip-path="url(#mx-clip-34-116-262-26-0)" font-family="Helvetica" font-size="14" style="fill:light-dark(#000,#fff)"><text x="36" y="131">Description_of_place:  VARCHAR(1000)</text></g></g></g></g><g data-cell-id="11"><g transform="translate(0.5,0.5)"><rect width="270" height="26" x="30" y="137" fill="none" stroke="#000" pointer-events="all" style="stroke:light-dark(#000,#ededed)"/></g><g><g clip-path="url(#mx-clip-34-142-262-26-0)" font-family="Helvetica" font-size="14" style="fill:light-dark(#000,#fff)"><text x="36" y="157">Category:                     VARCHAR</text></g></g></g><g data-cell-id="12"><g transform="translate(0.5,0.5)"><rect width="270" height="26" x="30" y="163" fill="none" stroke="#000" pointer-events="all" style="stroke:light-dark(#000,#ededed)"/></g><g><g clip-path="url(#mx-clip-34-168-262-26-0)" font-family="Helvetica" font-size="14" style="fill:light-dark(#000,#fff)"><text x="36" y="183">Latitude:                       DECIMAL</text></g></g></g><g data-cell-id="13"><g transform="translate(0.5,0.5)"><path fill="#ffce9f" stroke="#000" stroke-miterlimit="10" d="M 770 59.67 L 770 33.67 L 930 33.67 L 930 59.67" pointer-events="all" style="fill:light-dark(#ffce9f,#5a3008);stroke:light-dark(#000,#fff)"/><path fill="none" stroke="#000" stroke-miterlimit="10" d="M 770 59.67 L 770 111.67 L 930 111.67 L 930 59.67" pointer-events="none" style="stroke:light-dark(#000,#fff)"/><path fill="none" stroke="#000" stroke-miterlimit="10" d="M 770 59.67 L 930 59.67" pointer-events="none" style="stroke:light-dark(#000,#fff)"/></g><g><g font-family="Helvetica" font-size="14" style="fill:light-dark(#000,#fff)" text-anchor="middle"><text x="850" y="52.67">Users</text></g></g><g data-cell-id="14"><g transform="translate(0.5,0.5)"><rect width="160" height="26" x="770" y="59.67" fill="none" pointer-events="all"/></g><g><g clip-path="url(#mx-clip-774-65-152-26-0)" font-family="Helvetica" font-size="14" style="fill:light-dark(#000,#fff)"><text x="776" y="79.67">User_ID:        INT</text></g></g></g><g data-cell-id="15"><g transform="translate(0.5,0.5)"><rect width="160" height="26" x="770" y="85.67" fill="none" stroke="#000" pointer-events="all" style="stroke:light-dark(#000,#ededed)"/></g><g><g clip-path="url(#mx-clip-774-91-152-26-0)" font-family="Helvetica" font-size="13" style="fill:light-dark(#000,#fff)"><text x="776" y="104.67">User_name:    VARCHAR</text></g></g></g></g><g data-cell-id="16"><g transform="translate(0.5,0.5)"><path fill="#ffce9f" stroke="#000" stroke-miterlimit="10" d="M 530 59.67 L 530 33.67 L 760 33.67 L 760 59.67" pointer-events="all" style="fill:light-dark(#ffce9f,#5a3008);stroke:light-dark(#000,#fff)"/><path fill="none" stroke="#000" stroke-miterlimit="10" d="M 530 59.67 L 530 136.34 L 760 136.34 L 760 59.67" pointer-events="none" style="stroke:light-dark(#000,#fff)"/><path fill="none" stroke="#000" stroke-miterlimit="10" d="M 530 59.67 L 760 59.67" pointer-events="none" style="stroke:light-dark(#000,#fff)"/></g><g><g font-family="Helvetica" font-size="14" style="fill:light-dark(#000,#fff)" text-anchor="middle"><text x="645" y="52.67">Reviews</text></g></g><g data-cell-id="17"><g transform="translate(0.5,0.5)"><rect width="230" height="25.56" x="530" y="59.67" fill="none" pointer-events="all"/></g><g><g clip-path="url(#mx-clip-534-65-222-26-0)" font-family="Helvetica" font-size="14" style="fill:light-dark(#000,#fff)"><text x="536" y="79.67">Review_ID:                   INT</text></g></g></g><g data-cell-id="18"><g transform="translate(0.5,0.5)"><rect width="230" height="25.56" x="530" y="85.23" fill="none" stroke="#000" pointer-events="all" style="stroke:light-dark(#000,#ededed)"/></g><g><g clip-path="url(#mx-clip-534-90-222-26-0)" font-family="Helvetica" font-size="14" style="fill:light-dark(#000,#fff)"><text x="536" y="105.23">Place_ID:                      INT</text></g></g></g><g data-cell-id="19"><g transform="translate(0.5,0.5)"><rect width="230" height="25.56" x="530" y="110.78" fill="none" stroke="#000" pointer-events="all" style="stroke:light-dark(#000,#ededed)"/></g><g><g clip-path="url(#mx-clip-534-116-222-26-0)" font-family="Helvetica" font-size="13" style="fill:light-dark(#000,#fff)"><text x="536" y="129.78">User_ID:                          INT</text></g></g></g></g><g data-cell-id="20"><g transform="translate(0.5,0.5)"><rect width="230" height="25.56" x="530" y="136.44" fill="none" stroke="#000" pointer-events="all" style="stroke:light-dark(#000,#ededed)"/></g><g><g clip-path="url(#mx-clip-534-141-222-26-0)" font-family="Helvetica" font-size="14" style="fill:light-dark(#000,#fff)"><text x="536" y="156.44">Review_description:     VARCHAR</text></g></g></g><g data-cell-id="21"><g transform="translate(0.5,0.5)"><rect width="230" height="25.56" x="530" y="161.99" fill="none" stroke="#000" pointer-events="all" style="stroke:light-dark(#000,#ededed)"/></g><g><g clip-path="url(#mx-clip-534-167-222-26-0)" font-family="Helvetica" font-size="14" style="fill:light-dark(#000,#fff)"><text x="536" y="181.99">Rating:                          INT</text></g></g></g><g data-cell-id="22"><g transform="translate(0.5,0.5)"><rect width="270" height="26" x="30" y="189" fill="none" stroke="#000" pointer-events="all" style="stroke:light-dark(#000,#ededed)"/></g><g><g clip-path="url(#mx-clip-34-194-262-26-0)" font-family="Helvetica" font-size="14" style="fill:light-dark(#000,#fff)"><text x="36" y="209">Longitude:                    DECIMAL</text></g></g></g><g data-cell-id="24"><g transform="translate(0.5,0.5)"><rect width="270" height="26" x="30" y="215" fill="none" stroke="#000" pointer-events="all" style="stroke:light-dark(#000,#ededed)"/></g><g><g clip-path="url(#mx-clip-34-220-262-26-0)" font-family="Helvetica" font-size="14" style="fill:light-dark(#000,#fff)"><text x="36" y="235">Rating:                         DECIMAL</text></g></g></g></g></g></g></svg>